<svg width="20" height="21" viewBox="0 0 20 21" fill="none" xmlns="http://www.w3.org/2000/svg">
<path d="M19.5 15.6266C19.5 17.9236 17.6379 19.7857 15.341 19.7857C13.044 19.7857 11.1819 17.9236 11.1819 15.6266C11.1819 13.3296 13.044 11.4676 15.341 11.4676C17.6379 11.4676 19.5 13.3296 19.5 15.6266ZM8.58302 0.864146C8.84686 0.378618 9.54381 0.378617 9.80764 0.864148L13.5535 7.75771C13.8058 8.22206 13.4697 8.7873 12.9412 8.7873H5.44945C4.92097 8.7873 4.58482 8.22206 4.83714 7.75771L8.58302 0.864146ZM0.5 12.6012C0.5 12.2163 0.811999 11.9043 1.19687 11.9043H7.24766C7.63253 11.9043 7.94452 12.2163 7.94452 12.6012V18.652C7.94452 19.0368 7.63253 19.3488 7.24766 19.3488H1.19687C0.811999 19.3488 0.5 19.0368 0.5 18.652V12.6012Z" stroke="#262626"/>
</svg>
